<svg xmlns="http://www.w3.org/2000/svg" xmlns:xlink="http://www.w3.org/1999/xlink" preserveAspectRatio="xMidYMid" width="198" height="91" viewBox="0 0 198 91">
  <defs>
    <style>
      .cls-1 {
        fill: #fff;
        fill-rule: evenodd;
      }
    </style>
  </defs>
  <path d="M178.941,90.880 L178.941,0.914 L197.618,0.914 L197.618,90.880 L178.941,90.880 ZM134.929,58.531 L116.197,58.531 L116.197,90.880 L97.520,90.880 L97.520,0.914 L136.149,0.914 C145.054,0.914 152.154,3.234 157.449,7.872 C162.744,12.511 165.391,19.693 165.391,29.418 C165.391,40.038 162.757,47.545 157.491,51.940 C152.225,56.334 144.704,58.531 134.929,58.531 ZM143.143,19.530 C140.762,17.537 137.427,16.539 133.138,16.539 L116.197,16.539 L116.197,43.029 L133.138,43.029 C137.427,43.029 140.762,41.951 143.143,39.794 C145.523,37.637 146.714,34.219 146.714,29.540 C146.714,24.861 145.523,21.524 143.143,19.530 ZM59.326,72.386 L26.196,72.386 L20.097,90.880 L0.433,90.880 L32.548,0.914 L53.819,0.914 L85.649,90.880 L65.263,90.880 L59.326,72.386 ZM42.985,21.483 L31.309,56.884 L54.350,56.884 L42.985,21.483 Z" class="cls-1"/>
</svg>
