<svg xmlns="http://www.w3.org/2000/svg" xmlns:xlink="http://www.w3.org/1999/xlink" preserveAspectRatio="xMidYMid" width="32" height="32" viewBox="0 0 32 32">
  <defs>
    <style>
      .cls-1 {
        fill: #fff;
        fill-rule: evenodd;
      }
    </style>
  </defs>
  <path d="M0.404,17.687 L0.423,20.323 L0.426,20.327 C0.432,20.931 0.924,21.360 1.473,21.355 L1.479,21.358 L8.969,21.300 C9.547,21.295 9.998,20.824 9.992,20.257 L9.970,17.617 L9.606,17.620 C9.720,16.524 11.050,16.266 13.701,15.973 L20.083,15.919 C21.618,16.068 23.106,16.344 23.212,17.535 L23.007,17.536 L23.028,20.173 L23.029,20.177 C23.034,20.782 23.528,21.210 24.078,21.205 L24.083,21.210 L31.572,21.147 C32.151,21.146 32.600,20.675 32.596,20.107 L32.573,17.468 L32.303,17.470 C32.040,15.865 29.393,10.690 16.890,10.642 C3.915,10.595 0.878,15.965 0.720,17.685 L0.404,17.687 Z" class="cls-1"/>
</svg>
